<?xml version="1.0" standalone="no"?>
 <!DOCTYPE svg PUBLIC "-//W3C//DTD SVG 1.1//EN" 
 "http://www.w3.org/Graphics/SVG/1.1/DTD/svg11.dtd"> 
<svg xmlns="http://www.w3.org/2000/svg" version="1.1" 
    width="29.7002cm" height="21.0007cm" viewBox="0 0 116930 82680 ">
<title>SVG Picture created as _saved_FreeStationNanoPro2G - Copy.sch.svg date 2019/02/03 16:23:09 </title>
  <desc>Picture generated by Eeschema-SVG </desc>
<g style="fill:#000000; fill-opacity:1;stroke:#000000; stroke-opacity:1;
stroke-linecap:round; stroke-linejoin:round; "
 transform="translate(0 0) scale(1 1)">
</g>
<g style="fill:#000000; fill-opacity:0.0; 
stroke:#000000; stroke-width:0; stroke-opacity:1; 
stroke-linecap:round; stroke-linejoin:round;">
</g>
<g style="fill:#840000; fill-opacity:0.0; 
stroke:#840000; stroke-width:0; stroke-opacity:1; 
stroke-linecap:round; stroke-linejoin:round;">
</g>
<g style="fill:#840000; fill-opacity:0.0; 
stroke:#840000; stroke-width:60; stroke-opacity:1; 
stroke-linecap:round; stroke-linejoin:round;">
<rect x="36500" y="18500" width="1000" height="12000" rx="0" />
<rect x="36900" y="18950" width="600" height="100" rx="0" />
<rect x="36900" y="19950" width="600" height="100" rx="0" />
<rect x="36900" y="20950" width="600" height="100" rx="0" />
<rect x="36900" y="21950" width="600" height="100" rx="0" />
<rect x="36900" y="22950" width="600" height="100" rx="0" />
<rect x="36900" y="23950" width="600" height="100" rx="0" />
<rect x="36900" y="24950" width="600" height="100" rx="0" />
<rect x="36900" y="25950" width="600" height="100" rx="0" />
<rect x="36900" y="26950" width="600" height="100" rx="0" />
<rect x="36900" y="27950" width="600" height="100" rx="0" />
<rect x="36900" y="28950" width="600" height="100" rx="0" />
<rect x="36900" y="29950" width="600" height="100" rx="0" />
<path d="M37500 30000
L39000 30000
" />
<path d="M38390 29880
L38110 29880
" />
<path d="M38250 29880
L38250 29380
L38200 29450
L38150 29500
L38110 29520
" />
<path d="M37500 29000
L39000 29000
" />
<path d="M38110 28420
L38130 28400
L38180 28380
L38300 28380
L38340 28400
L38370 28420
L38390 28470
L38390 28520
L38370 28590
L38080 28880
L38390 28880
" />
<path d="M37500 28000
L39000 28000
" />
<path d="M38080 27380
L38390 27380
L38220 27570
L38300 27570
L38340 27590
L38370 27610
L38390 27660
L38390 27780
L38370 27830
L38340 27850
L38300 27880
L38150 27880
L38110 27850
L38080 27830
" />
<path d="M37500 27000
L39000 27000
" />
<path d="M38340 26540
L38340 26880
" />
<path d="M38220 26350
L38110 26710
L38410 26710
" />
<path d="M37500 26000
L39000 26000
" />
<path d="M38370 25380
L38130 25380
L38110 25610
L38130 25590
L38180 25570
L38300 25570
L38340 25590
L38370 25610
L38390 25660
L38390 25780
L38370 25830
L38340 25850
L38300 25880
L38180 25880
L38130 25850
L38110 25830
" />
<path d="M37500 25000
L39000 25000
" />
<path d="M38340 24380
L38250 24380
L38200 24400
L38180 24420
L38130 24500
L38110 24590
L38110 24780
L38130 24830
L38150 24850
L38200 24880
L38300 24880
L38340 24850
L38370 24830
L38390 24780
L38390 24660
L38370 24610
L38340 24590
L38300 24570
L38200 24570
L38150 24590
L38130 24610
L38110 24660
" />
<path d="M37500 24000
L39000 24000
" />
<path d="M38080 23380
L38410 23380
L38200 23880
" />
<path d="M37500 23000
L39000 23000
" />
<path d="M38200 22590
L38150 22570
L38130 22540
L38110 22500
L38110 22470
L38130 22420
L38150 22400
L38200 22380
L38300 22380
L38340 22400
L38370 22420
L38390 22470
L38390 22500
L38370 22540
L38340 22570
L38300 22590
L38200 22590
L38150 22610
L38130 22640
L38110 22690
L38110 22780
L38130 22830
L38150 22850
L38200 22880
L38300 22880
L38340 22850
L38370 22830
L38390 22780
L38390 22690
L38370 22640
L38340 22610
L38300 22590
" />
<path d="M37500 22000
L39000 22000
" />
<path d="M38150 21880
L38250 21880
L38300 21850
L38320 21830
L38370 21760
L38390 21660
L38390 21470
L38370 21420
L38340 21400
L38300 21380
L38200 21380
L38150 21400
L38130 21420
L38110 21470
L38110 21590
L38130 21640
L38150 21660
L38200 21690
L38300 21690
L38340 21660
L38370 21640
L38390 21590
" />
<path d="M37500 21000
L39000 21000
" />
<path d="M38150 20880
L37870 20880
" />
<path d="M38010 20880
L38010 20380
L37960 20450
L37910 20500
L37870 20520
" />
<path d="M38460 20380
L38510 20380
L38560 20400
L38580 20420
L38610 20470
L38630 20570
L38630 20690
L38610 20780
L38580 20830
L38560 20850
L38510 20880
L38460 20880
L38420 20850
L38390 20830
L38370 20780
L38350 20690
L38350 20570
L38370 20470
L38390 20420
L38420 20400
L38460 20380
" />
<path d="M37500 20000
L39000 20000
" />
<path d="M38150 19880
L37870 19880
" />
<path d="M38010 19880
L38010 19380
L37960 19450
L37910 19500
L37870 19520
" />
<path d="M38630 19880
L38350 19880
" />
<path d="M38490 19880
L38490 19380
L38440 19450
L38390 19500
L38350 19520
" />
<path d="M37500 19000
L39000 19000
" />
<path d="M38150 18880
L37870 18880
" />
<path d="M38010 18880
L38010 18380
L37960 18450
L37910 18500
L37870 18520
" />
<path d="M38350 18420
L38370 18400
L38420 18380
L38540 18380
L38580 18400
L38610 18420
L38630 18470
L38630 18520
L38610 18590
L38320 18880
L38630 18880
" />
</g>
<g style="fill:#008484; fill-opacity:0.0; 
stroke:#008484; stroke-width:60; stroke-opacity:1; 
stroke-linecap:round; stroke-linejoin:round;">
<path d="M36830 30690
L36830 31040
L36810 31110
L36760 31160
L36690 31190
L36640 31190
" />
<path d="M37020 30690
L37330 30690
L37160 30880
L37240 30880
L37280 30900
L37310 30920
L37330 30970
L37330 31090
L37310 31140
L37280 31160
L37240 31190
L37090 31190
L37050 31160
L37020 31140
" />
<path d="M36710 17890
L36690 17940
L36690 18010
L36710 18080
L36760 18130
L36810 18150
L36900 18170
L36970 18170
L37070 18150
L37110 18130
L37160 18080
L37190 18010
L37190 17960
L37160 17890
L37140 17870
L36970 17870
L36970 17960
" />
<path d="M37160 17670
L37190 17600
L37190 17480
L37160 17440
L37140 17410
L37090 17390
L37040 17390
L37000 17410
L36970 17440
L36950 17480
L36920 17580
L36900 17630
L36880 17650
L36830 17670
L36780 17670
L36730 17650
L36710 17630
L36690 17580
L36690 17460
L36710 17390
" />
<path d="M37190 17170
L36690 17170
L37040 17000
L36690 16840
L37190 16840
" />
</g>
<g style="fill:#008484; fill-opacity:0.0; 
stroke:#008484; stroke-width:0; stroke-opacity:1; 
stroke-linecap:round; stroke-linejoin:round;">
</g>
<g style="fill:#840000; fill-opacity:0.0; 
stroke:#840000; stroke-width:0; stroke-opacity:1; 
stroke-linecap:round; stroke-linejoin:round;">
</g>
<g style="fill:#840000; fill-opacity:0.0; 
stroke:#840000; stroke-width:60; stroke-opacity:1; 
stroke-linecap:round; stroke-linejoin:round;">
<rect x="26500" y="18500" width="1000" height="12000" rx="0" />
<rect x="26500" y="29950" width="600" height="100" rx="0" />
<rect x="26500" y="28950" width="600" height="100" rx="0" />
<rect x="26500" y="27950" width="600" height="100" rx="0" />
<rect x="26500" y="26950" width="600" height="100" rx="0" />
<rect x="26500" y="25950" width="600" height="100" rx="0" />
<rect x="26500" y="24950" width="600" height="100" rx="0" />
<rect x="26500" y="23950" width="600" height="100" rx="0" />
<rect x="26500" y="22950" width="600" height="100" rx="0" />
<rect x="26500" y="21950" width="600" height="100" rx="0" />
<rect x="26500" y="20950" width="600" height="100" rx="0" />
<rect x="26500" y="19950" width="600" height="100" rx="0" />
<rect x="26500" y="18950" width="600" height="100" rx="0" />
<path d="M26500 19000
L25000 19000
" />
<path d="M25890 18880
L25610 18880
" />
<path d="M25750 18880
L25750 18380
L25700 18450
L25650 18500
L25610 18520
" />
<path d="M26500 20000
L25000 20000
" />
<path d="M25610 19420
L25630 19400
L25680 19380
L25800 19380
L25840 19400
L25870 19420
L25890 19470
L25890 19520
L25870 19590
L25580 19880
L25890 19880
" />
<path d="M26500 21000
L25000 21000
" />
<path d="M25580 20380
L25890 20380
L25720 20570
L25800 20570
L25840 20590
L25870 20610
L25890 20660
L25890 20780
L25870 20830
L25840 20850
L25800 20880
L25650 20880
L25610 20850
L25580 20830
" />
<path d="M26500 22000
L25000 22000
" />
<path d="M25840 21540
L25840 21880
" />
<path d="M25720 21350
L25610 21710
L25910 21710
" />
<path d="M26500 23000
L25000 23000
" />
<path d="M25870 22380
L25630 22380
L25610 22610
L25630 22590
L25680 22570
L25800 22570
L25840 22590
L25870 22610
L25890 22660
L25890 22780
L25870 22830
L25840 22850
L25800 22880
L25680 22880
L25630 22850
L25610 22830
" />
<path d="M26500 24000
L25000 24000
" />
<path d="M25840 23380
L25750 23380
L25700 23400
L25680 23420
L25630 23500
L25610 23590
L25610 23780
L25630 23830
L25650 23850
L25700 23880
L25800 23880
L25840 23850
L25870 23830
L25890 23780
L25890 23660
L25870 23610
L25840 23590
L25800 23570
L25700 23570
L25650 23590
L25630 23610
L25610 23660
" />
<path d="M26500 25000
L25000 25000
" />
<path d="M25580 24380
L25910 24380
L25700 24880
" />
<path d="M26500 26000
L25000 26000
" />
<path d="M25700 25590
L25650 25570
L25630 25540
L25610 25500
L25610 25470
L25630 25420
L25650 25400
L25700 25380
L25800 25380
L25840 25400
L25870 25420
L25890 25470
L25890 25500
L25870 25540
L25840 25570
L25800 25590
L25700 25590
L25650 25610
L25630 25640
L25610 25690
L25610 25780
L25630 25830
L25650 25850
L25700 25880
L25800 25880
L25840 25850
L25870 25830
L25890 25780
L25890 25690
L25870 25640
L25840 25610
L25800 25590
" />
<path d="M26500 27000
L25000 27000
" />
<path d="M25650 26880
L25750 26880
L25800 26850
L25820 26830
L25870 26760
L25890 26660
L25890 26470
L25870 26420
L25840 26400
L25800 26380
L25700 26380
L25650 26400
L25630 26420
L25610 26470
L25610 26590
L25630 26640
L25650 26660
L25700 26690
L25800 26690
L25840 26660
L25870 26640
L25890 26590
" />
<path d="M26500 28000
L25000 28000
" />
<path d="M25650 27880
L25370 27880
" />
<path d="M25510 27880
L25510 27380
L25460 27450
L25410 27500
L25370 27520
" />
<path d="M25960 27380
L26010 27380
L26060 27400
L26080 27420
L26110 27470
L26130 27570
L26130 27690
L26110 27780
L26080 27830
L26060 27850
L26010 27880
L25960 27880
L25920 27850
L25890 27830
L25870 27780
L25850 27690
L25850 27570
L25870 27470
L25890 27420
L25920 27400
L25960 27380
" />
<path d="M26500 29000
L25000 29000
" />
<path d="M25650 28880
L25370 28880
" />
<path d="M25510 28880
L25510 28380
L25460 28450
L25410 28500
L25370 28520
" />
<path d="M26130 28880
L25850 28880
" />
<path d="M25990 28880
L25990 28380
L25940 28450
L25890 28500
L25850 28520
" />
<path d="M26500 30000
L25000 30000
" />
<path d="M25650 29880
L25370 29880
" />
<path d="M25510 29880
L25510 29380
L25460 29450
L25410 29500
L25370 29520
" />
<path d="M25850 29420
L25870 29400
L25920 29380
L26040 29380
L26080 29400
L26110 29420
L26130 29470
L26130 29520
L26110 29590
L25820 29880
L26130 29880
" />
</g>
<g style="fill:#008484; fill-opacity:0.0; 
stroke:#008484; stroke-width:60; stroke-opacity:1; 
stroke-linecap:round; stroke-linejoin:round;">
<path d="M26830 17760
L26830 18110
L26810 18180
L26760 18230
L26690 18260
L26640 18260
" />
<path d="M27050 17800
L27070 17780
L27120 17760
L27240 17760
L27280 17780
L27310 17800
L27330 17850
L27330 17900
L27310 17970
L27020 18260
L27330 18260
" />
<path d="M23270 31280
L23220 31260
L23150 31260
L23080 31280
L23030 31330
L23010 31380
L22990 31470
L22990 31540
L23010 31640
L23030 31680
L23080 31730
L23150 31760
L23200 31760
L23270 31730
L23290 31710
L23290 31540
L23200 31540
" />
<path d="M23490 31730
L23560 31760
L23680 31760
L23720 31730
L23750 31710
L23770 31660
L23770 31610
L23750 31570
L23720 31540
L23680 31520
L23580 31490
L23530 31470
L23510 31450
L23490 31400
L23490 31350
L23510 31300
L23530 31280
L23580 31260
L23700 31260
L23770 31280
" />
<path d="M23990 31760
L23990 31260
L24160 31610
L24320 31260
L24320 31760
" />
<path d="M24440 31800
L24820 31800
" />
<path d="M24920 31610
L25150 31610
" />
<path d="M24870 31760
L25030 31260
L25200 31760
" />
<path d="M25370 31760
L25370 31260
L25650 31760
L25650 31260
" />
<path d="M25820 31260
L26100 31260
" />
<path d="M25960 31760
L25960 31260
" />
<path d="M26270 31490
L26440 31490
" />
<path d="M26510 31760
L26270 31760
L26270 31260
L26510 31260
" />
<path d="M26720 31760
L26720 31260
L27000 31760
L27000 31260
" />
<path d="M27240 31760
L27240 31260
L27520 31760
L27520 31260
" />
<path d="M27740 31610
L27970 31610
" />
<path d="M27690 31760
L27850 31260
L28020 31760
" />
<path d="M28070 31800
L28450 31800
" />
<path d="M28550 31730
L28620 31760
L28740 31760
L28780 31730
L28810 31710
L28830 31660
L28830 31610
L28810 31570
L28780 31540
L28740 31520
L28640 31490
L28590 31470
L28570 31450
L28550 31400
L28550 31350
L28570 31300
L28590 31280
L28640 31260
L28760 31260
L28830 31280
" />
<path d="M29050 31760
L29050 31260
" />
<path d="M29290 31760
L29290 31260
L29410 31260
L29480 31280
L29530 31330
L29550 31380
L29570 31470
L29570 31540
L29550 31640
L29530 31680
L29480 31730
L29410 31760
L29290 31760
" />
<path d="M29790 31490
L29960 31490
" />
<path d="M30030 31760
L29790 31760
L29790 31260
L30030 31260
" />
</g>
<g style="fill:#840000; fill-opacity:0.0; 
stroke:#840000; stroke-width:60; stroke-opacity:1; 
stroke-linecap:round; stroke-linejoin:round;">
<path d="M7790 33700
L7730 33670
L7640 33670
L7560 33700
L7500 33760
L7470 33810
L7440 33930
L7440 34010
L7470 34130
L7500 34190
L7560 34240
L7640 34270
L7700 34270
L7790 34240
L7820 34210
L7820 34010
L7700 34010
" />
<path d="M8040 34240
L8130 34270
L8270 34270
L8330 34240
L8360 34210
L8390 34160
L8390 34100
L8360 34040
L8330 34010
L8270 33990
L8160 33960
L8100 33930
L8070 33900
L8040 33840
L8040 33790
L8070 33730
L8100 33700
L8160 33670
L8300 33670
L8390 33700
" />
<path d="M8640 34270
L8640 33670
L8840 34100
L9040 33670
L9040 34270
" />
<path d="M9680 34270
L9480 33990
" />
<path d="M9330 34270
L9330 33670
L9560 33670
L9620 33700
L9650 33730
L9680 33790
L9680 33870
L9650 33930
L9620 33960
L9560 33990
L9330 33990
" />
<path d="M10160 34240
L10100 34270
L9990 34270
L9930 34240
L9900 34190
L9900 33960
L9930 33900
L9990 33870
L10100 33870
L10160 33900
L10190 33960
L10190 34010
L9900 34070
" />
<path d="M10410 34240
L10470 34270
L10590 34270
L10640 34240
L10670 34190
L10670 34160
L10640 34100
L10590 34070
L10500 34070
L10440 34040
L10410 33990
L10410 33960
L10440 33900
L10500 33870
L10590 33870
L10640 33900
" />
<path d="M11160 34240
L11100 34270
L10990 34270
L10930 34240
L10900 34190
L10900 33960
L10930 33900
L10990 33870
L11100 33870
L11160 33900
L11190 33960
L11190 34010
L10900 34070
" />
<path d="M11360 33870
L11590 33870
" />
<path d="M11440 33670
L11440 34190
L11470 34240
L11530 34270
L11590 34270
" />
</g>
<g style="fill:#840000; fill-opacity:0.0; 
stroke:#840000; stroke-width:100; stroke-opacity:1; 
stroke-linecap:round; stroke-linejoin:round;">
<polyline fill="none;"
points="12000,34000
11700,33460
7100,33460
7100,34000
7100,34540
11700,34540
12000,34000
" /> 
</g>
<g style="fill:#840000; fill-opacity:0.0; 
stroke:#840000; stroke-width:0; stroke-opacity:1; 
stroke-linecap:round; stroke-linejoin:round;">
</g>
<g style="fill:#840000; fill-opacity:0.0; 
stroke:#840000; stroke-width:100; stroke-opacity:1; 
stroke-linecap:round; stroke-linejoin:round;">
<rect x="18600" y="21500" width="800" height="2000" rx="0" />
</g>
<g style="fill:#840000; fill-opacity:0.0; 
stroke:#840000; stroke-width:60; stroke-opacity:1; 
stroke-linecap:round; stroke-linejoin:round;">
<path d="M19000 21500
L19000 21000
" />
<path d="M19000 23500
L19000 24000
" />
</g>
<g style="fill:#008484; fill-opacity:0.0; 
stroke:#008484; stroke-width:60; stroke-opacity:1; 
stroke-linecap:round; stroke-linejoin:round;">
<path d="M20060 22800
L20060 23080
" />
<path d="M20060 22940
L19560 22940
L19630 22990
L19680 23040
L19700 23080
" />
<path d="M19560 22490
L19560 22440
L19580 22390
L19600 22370
L19650 22340
L19750 22320
L19870 22320
L19960 22340
L20010 22370
L20030 22390
L20060 22440
L20060 22490
L20030 22530
L20010 22560
L19960 22580
L19870 22600
L19750 22600
L19650 22580
L19600 22560
L19580 22530
L19560 22490
" />
<path d="M20060 22100
L19560 22100
" />
<path d="M19870 22050
L20060 21910
" />
<path d="M19720 21910
L19910 22100
" />
<path d="M19260 22350
L19020 22510
" />
<path d="M19260 22630
L18760 22630
L18760 22440
L18780 22390
L18800 22370
L18850 22350
L18920 22350
L18970 22370
L18990 22390
L19020 22440
L19020 22630
" />
</g>
<g style="fill:#008484; fill-opacity:0.0; 
stroke:#008484; stroke-width:0; stroke-opacity:1; 
stroke-linecap:round; stroke-linejoin:round;">
</g>
<g style="fill:#840000; fill-opacity:0.0; 
stroke:#840000; stroke-width:0; stroke-opacity:1; 
stroke-linecap:round; stroke-linejoin:round;">
</g>
<g style="fill:#840000; fill-opacity:0.0; 
stroke:#840000; stroke-width:60; stroke-opacity:1; 
stroke-linecap:round; stroke-linejoin:round;">
<rect x="56500" y="45950" width="600" height="100" rx="0" />
<rect x="56500" y="44950" width="600" height="100" rx="0" />
<rect x="56500" y="44500" width="1000" height="2000" rx="0" />
<path d="M56500 45000
L55000 45000
" />
<path d="M55890 44880
L55610 44880
" />
<path d="M55750 44880
L55750 44380
L55700 44450
L55650 44500
L55610 44520
" />
<path d="M56500 46000
L55000 46000
" />
<path d="M55610 45420
L55630 45400
L55680 45380
L55800 45380
L55840 45400
L55870 45420
L55890 45470
L55890 45520
L55870 45590
L55580 45880
L55890 45880
" />
</g>
<g style="fill:#008484; fill-opacity:0.0; 
stroke:#008484; stroke-width:60; stroke-opacity:1; 
stroke-linecap:round; stroke-linejoin:round;">
<path d="M56830 46760
L56830 47110
L56810 47180
L56760 47230
L56690 47260
L56640 47260
" />
<path d="M57280 46760
L57190 46760
L57140 46780
L57120 46800
L57070 46880
L57050 46970
L57050 47160
L57070 47210
L57090 47230
L57140 47260
L57240 47260
L57280 47230
L57310 47210
L57330 47160
L57330 47040
L57310 46990
L57280 46970
L57240 46950
L57140 46950
L57090 46970
L57070 46990
L57050 47040
" />
<path d="M57760 48070
L57760 48310
L57990 48330
L57970 48310
L57950 48260
L57950 48140
L57970 48100
L57990 48070
L58040 48050
L58160 48050
L58210 48070
L58230 48100
L58260 48140
L58260 48260
L58230 48310
L58210 48330
" />
<path d="M57760 47900
L58260 47740
L57760 47570
" />
<path d="M58230 47420
L58260 47350
L58260 47230
L58230 47190
L58210 47160
L58160 47140
L58110 47140
L58070 47160
L58040 47190
L58020 47230
L57990 47330
L57970 47380
L57950 47400
L57900 47420
L57850 47420
L57800 47400
L57780 47380
L57760 47330
L57760 47210
L57780 47140
" />
<path d="M57760 46990
L57760 46710
" />
<path d="M58260 46850
L57760 46850
" />
<path d="M57990 46540
L57990 46370
" />
<path d="M58260 46300
L58260 46540
L57760 46540
L57760 46300
" />
<path d="M58260 46090
L57760 46090
L57760 45900
L57780 45850
L57800 45830
L57850 45810
L57920 45810
L57970 45830
L57990 45850
L58020 45900
L58020 46090
" />
<path d="M58300 45710
L58300 45330
" />
<path d="M58260 45210
L57760 45210
" />
<path d="M58260 44970
L57760 44970
L58260 44690
L57760 44690
" />
</g>
<g style="fill:#840000; fill-opacity:0.0; 
stroke:#840000; stroke-width:60; stroke-opacity:1; 
stroke-linecap:round; stroke-linejoin:round;">
<path d="M22290 20270
L22000 20270
L22000 19670
" />
<path d="M22350 20330
L22810 20330
" />
<path d="M23270 19700
L23210 19670
L23120 19670
L23040 19700
L22980 19760
L22950 19810
L22920 19930
L22920 20010
L22950 20130
L22980 20190
L23040 20240
L23120 20270
L23180 20270
L23270 20240
L23300 20210
L23300 20010
L23180 20010
" />
<path d="M23550 20270
L23550 19670
L23900 20270
L23900 19670
" />
<path d="M24180 20270
L24180 19670
L24330 19670
L24410 19700
L24470 19760
L24500 19810
L24530 19930
L24530 20010
L24500 20130
L24470 20190
L24410 20240
L24330 20270
L24180 20270
" />
</g>
<g style="fill:#840000; fill-opacity:0.0; 
stroke:#840000; stroke-width:100; stroke-opacity:1; 
stroke-linecap:round; stroke-linejoin:round;">
<polyline fill="none;"
points="25000,20000
24700,19460
21630,19460
21630,20000
21630,20540
24700,20540
25000,20000
" /> 
</g>
<g style="fill:#840000; fill-opacity:0.0; 
stroke:#840000; stroke-width:0; stroke-opacity:1; 
stroke-linecap:round; stroke-linejoin:round;">
</g>
<g style="fill:#840000; fill-opacity:0.0; 
stroke:#840000; stroke-width:100; stroke-opacity:1; 
stroke-linecap:round; stroke-linejoin:round;">
<rect x="47600" y="37000" width="800" height="2000" rx="0" />
</g>
<g style="fill:#840000; fill-opacity:0.0; 
stroke:#840000; stroke-width:60; stroke-opacity:1; 
stroke-linecap:round; stroke-linejoin:round;">
<path d="M48000 39000
L48000 39500
" />
<path d="M48000 37000
L48000 36500
" />
</g>
<g style="fill:#008484; fill-opacity:0.0; 
stroke:#008484; stroke-width:60; stroke-opacity:1; 
stroke-linecap:round; stroke-linejoin:round;">
<path d="M47390 38110
L47390 38390
" />
<path d="M47390 38250
L46890 38250
L46960 38300
L47010 38350
L47030 38390
" />
<path d="M47390 37890
L46890 37890
" />
<path d="M47390 37610
L47100 37820
" />
<path d="M46890 37610
L47170 37890
" />
<path d="M48190 37850
L47950 38010
" />
<path d="M48190 38130
L47690 38130
L47690 37940
L47710 37890
L47730 37870
L47780 37850
L47850 37850
L47900 37870
L47920 37890
L47950 37940
L47950 38130
" />
</g>
<g style="fill:#008484; fill-opacity:0.0; 
stroke:#008484; stroke-width:0; stroke-opacity:1; 
stroke-linecap:round; stroke-linejoin:round;">
</g>
<g style="fill:#840000; fill-opacity:0.0; 
stroke:#840000; stroke-width:0; stroke-opacity:1; 
stroke-linecap:round; stroke-linejoin:round;">
</g>
<g style="fill:#840000; fill-opacity:0.0; 
stroke:#840000; stroke-width:60; stroke-opacity:1; 
stroke-linecap:round; stroke-linejoin:round;">
<rect x="54000" y="30950" width="600" height="100" rx="0" />
<rect x="54000" y="29950" width="600" height="100" rx="0" />
<rect x="54000" y="28950" width="600" height="100" rx="0" />
<rect x="54000" y="27950" width="600" height="100" rx="0" />
<rect x="54000" y="27500" width="1000" height="4000" rx="0" />
<path d="M54000 28000
L52500 28000
" />
<path d="M53390 27880
L53110 27880
" />
<path d="M53250 27880
L53250 27380
L53200 27450
L53150 27500
L53110 27520
" />
<path d="M54000 29000
L52500 29000
" />
<path d="M53110 28420
L53130 28400
L53180 28380
L53300 28380
L53340 28400
L53370 28420
L53390 28470
L53390 28520
L53370 28590
L53080 28880
L53390 28880
" />
<path d="M54000 30000
L52500 30000
" />
<path d="M53080 29380
L53390 29380
L53220 29570
L53300 29570
L53340 29590
L53370 29610
L53390 29660
L53390 29780
L53370 29830
L53340 29850
L53300 29880
L53150 29880
L53110 29850
L53080 29830
" />
<path d="M54000 31000
L52500 31000
" />
<path d="M53340 30540
L53340 30880
" />
<path d="M53220 30350
L53110 30710
L53410 30710
" />
</g>
<g style="fill:#008484; fill-opacity:0.0; 
stroke:#008484; stroke-width:60; stroke-opacity:1; 
stroke-linecap:round; stroke-linejoin:round;">
<path d="M54360 26760
L54360 27110
L54340 27180
L54290 27230
L54220 27260
L54170 27260
" />
<path d="M54670 27210
L54690 27230
L54670 27260
L54650 27230
L54670 27210
L54670 27260
" />
<path d="M54580 26780
L54620 26760
L54740 26760
L54790 26780
L54810 26830
L54810 26880
L54790 26920
L54770 26950
L54720 26970
L54690 26990
L54670 27040
L54670 27070
" />
<path d="M55260 31050
L55260 31290
L55490 31310
L55470 31290
L55450 31240
L55450 31120
L55470 31080
L55490 31050
L55540 31030
L55660 31030
L55710 31050
L55730 31080
L55760 31120
L55760 31240
L55730 31290
L55710 31310
" />
<path d="M55260 30880
L55760 30720
L55260 30550
" />
<path d="M55730 30400
L55760 30330
L55760 30210
L55730 30170
L55710 30140
L55660 30120
L55610 30120
L55570 30140
L55540 30170
L55520 30210
L55490 30310
L55470 30360
L55450 30380
L55400 30400
L55350 30400
L55300 30380
L55280 30360
L55260 30310
L55260 30190
L55280 30120
" />
<path d="M55420 29970
L55420 29780
" />
<path d="M55260 29900
L55680 29900
L55730 29880
L55760 29830
L55760 29780
" />
<path d="M55730 29420
L55760 29470
L55760 29560
L55730 29610
L55680 29630
L55490 29630
L55450 29610
L55420 29560
L55420 29470
L55450 29420
L55490 29400
L55540 29400
L55590 29630
" />
<path d="M55420 29180
L55920 29180
" />
<path d="M55450 29180
L55420 29130
L55420 29040
L55450 28990
L55470 28970
L55520 28940
L55660 28940
L55710 28970
L55730 28990
L55760 29040
L55760 29130
L55730 29180
" />
<path d="M55260 28640
L55260 28540
L55280 28490
L55330 28450
L55420 28420
L55590 28420
L55680 28450
L55730 28490
L55760 28540
L55760 28640
L55730 28680
L55680 28730
L55590 28750
L55420 28750
L55330 28730
L55280 28680
L55260 28640
" />
<path d="M55420 28000
L55760 28000
" />
<path d="M55420 28210
L55680 28210
L55730 28190
L55760 28140
L55760 28070
L55730 28020
L55710 28000
" />
<path d="M55420 27830
L55420 27640
" />
<path d="M55260 27760
L55680 27760
L55730 27740
L55760 27690
L55760 27640
" />
</g>
<g style="fill:#840000; fill-opacity:0.0; 
stroke:#840000; stroke-width:60; stroke-opacity:1; 
stroke-linecap:round; stroke-linejoin:round;">
<path d="M49470 35600
L49760 35600
" />
<path d="M49420 35770
L49620 35170
L49820 35770
" />
<path d="M50010 35770
L50010 35370
" />
<path d="M50010 35490
L50040 35430
L50070 35400
L50130 35370
L50180 35370
" />
<path d="M50640 35770
L50640 35170
" />
<path d="M50640 35740
L50580 35770
L50470 35770
L50410 35740
L50380 35710
L50350 35660
L50350 35490
L50380 35430
L50410 35400
L50470 35370
L50580 35370
L50640 35400
" />
<path d="M51180 35370
L51180 35770
" />
<path d="M50920 35370
L50920 35690
L50950 35740
L51010 35770
L51090 35770
L51150 35740
L51180 35710
" />
<path d="M51460 35770
L51460 35370
" />
<path d="M51460 35170
L51430 35200
L51460 35230
L51490 35200
L51460 35170
L51460 35230
" />
<path d="M51750 35370
L51750 35770
" />
<path d="M51750 35430
L51780 35400
L51840 35370
L51920 35370
L51980 35400
L52010 35460
L52010 35770
" />
<path d="M52380 35770
L52320 35740
L52290 35710
L52260 35660
L52260 35490
L52290 35430
L52320 35400
L52380 35370
L52460 35370
L52520 35400
L52550 35430
L52580 35490
L52580 35660
L52550 35710
L52520 35740
L52460 35770
L52380 35770
" />
<path d="M52830 35770
L52830 35170
L53060 35170
L53120 35200
L53150 35230
L53180 35290
L53180 35370
L53150 35430
L53120 35460
L53060 35490
L52830 35490
" />
<path d="M53430 35770
L53430 35370
" />
<path d="M53430 35170
L53400 35200
L53430 35230
L53460 35200
L53430 35170
L53430 35230
" />
<path d="M53720 35370
L53720 35770
" />
<path d="M53720 35430
L53750 35400
L53810 35370
L53890 35370
L53950 35400
L53980 35460
L53980 35770
" />
<path d="M54520 35370
L54520 35770
" />
<path d="M54380 35140
L54230 35570
L54610 35570
" />
</g>
<g style="fill:#840000; fill-opacity:0.0; 
stroke:#840000; stroke-width:100; stroke-opacity:1; 
stroke-linecap:round; stroke-linejoin:round;">
<polyline fill="none;"
points="49000,35500
49300,36040
54920,36040
54920,35500
54920,34960
49300,34960
49000,35500
" /> 
</g>
<g style="fill:#840000; fill-opacity:0.0; 
stroke:#840000; stroke-width:0; stroke-opacity:1; 
stroke-linecap:round; stroke-linejoin:round;">
</g>
<g style="fill:#840000; fill-opacity:0.0; 
stroke:#840000; stroke-width:60; stroke-opacity:1; 
stroke-linecap:round; stroke-linejoin:round;">
<rect x="39400" y="44950" width="600" height="100" rx="0" />
<rect x="39400" y="45950" width="600" height="100" rx="0" />
<rect x="39000" y="44500" width="1000" height="2000" rx="0" />
<path d="M40000 46000
L41500 46000
" />
<path d="M40890 45880
L40610 45880
" />
<path d="M40750 45880
L40750 45380
L40700 45450
L40650 45500
L40610 45520
" />
<path d="M40000 45000
L41500 45000
" />
<path d="M40610 44420
L40630 44400
L40680 44380
L40800 44380
L40840 44400
L40870 44420
L40890 44470
L40890 44520
L40870 44590
L40580 44880
L40890 44880
" />
</g>
<g style="fill:#008484; fill-opacity:0.0; 
stroke:#008484; stroke-width:60; stroke-opacity:1; 
stroke-linecap:round; stroke-linejoin:round;">
<path d="M39350 46690
L39350 47040
L39330 47110
L39280 47160
L39210 47190
L39160 47190
" />
<path d="M39660 47140
L39680 47160
L39660 47190
L39640 47160
L39660 47140
L39660 47190
" />
<path d="M39570 46710
L39610 46690
L39730 46690
L39780 46710
L39800 46760
L39800 46810
L39780 46850
L39760 46880
L39710 46900
L39680 46920
L39660 46970
L39660 47000
" />
<path d="M38420 46530
L38450 46460
L38470 46440
L38520 46420
L38590 46420
L38640 46440
L38660 46460
L38690 46510
L38690 46700
L38190 46700
L38190 46530
L38210 46490
L38230 46460
L38280 46440
L38330 46440
L38380 46460
L38400 46490
L38420 46530
L38420 46700
" />
<path d="M38690 45990
L38420 45990
L38380 46010
L38350 46060
L38350 46150
L38380 46200
" />
<path d="M38660 45990
L38690 46030
L38690 46150
L38660 46200
L38610 46220
L38570 46220
L38520 46200
L38500 46150
L38500 46030
L38470 45990
" />
<path d="M38350 45820
L38350 45630
" />
<path d="M38190 45750
L38610 45750
L38660 45730
L38690 45680
L38690 45630
" />
<path d="M38350 45530
L38350 45340
" />
<path d="M38190 45460
L38610 45460
L38660 45440
L38690 45390
L38690 45340
" />
<path d="M38660 44980
L38690 45030
L38690 45120
L38660 45170
L38610 45190
L38420 45190
L38380 45170
L38350 45120
L38350 45030
L38380 44980
L38420 44960
L38470 44960
L38520 45190
" />
<path d="M38690 44740
L38350 44740
" />
<path d="M38450 44740
L38400 44720
L38380 44690
L38350 44650
L38350 44600
" />
<path d="M38350 44480
L38690 44360
" />
<path d="M38350 44240
L38690 44360
L38810 44410
L38830 44430
L38850 44480
" />
</g>
<g style="fill:#000000; fill-opacity:0.0; 
stroke:#000000; stroke-width:60; stroke-opacity:1; 
stroke-linecap:round; stroke-linejoin:round;">
<path d="M41870 50290
L41270 50290
L41270 50060
L41300 50000
L41330 49970
L41390 49940
L41470 49940
L41530 49970
L41560 50000
L41590 50060
L41590 50290
" />
<path d="M41560 49490
L41590 49400
L41610 49370
L41670 49340
L41760 49340
L41810 49370
L41840 49400
L41870 49460
L41870 49690
L41270 49690
L41270 49490
L41300 49430
L41330 49400
L41390 49370
L41440 49370
L41500 49400
L41530 49430
L41560 49490
L41560 49690
" />
<path d="M41700 49120
L41700 48830
" />
<path d="M41870 49170
L41270 48970
L41870 48770
" />
<path d="M41270 48660
L41270 48320
" />
<path d="M41870 48490
L41270 48490
" />
<path d="M41270 48200
L41270 47860
" />
<path d="M41870 48030
L41270 48030
" />
<path d="M41870 47660
L41270 47660
L41270 47430
L41300 47370
L41330 47340
L41390 47310
L41470 47310
L41530 47340
L41560 47370
L41590 47430
L41590 47660
" />
<path d="M41270 46940
L41270 46830
L41300 46770
L41360 46710
L41470 46690
L41670 46690
L41790 46710
L41840 46770
L41870 46830
L41870 46940
L41840 47000
L41790 47060
L41670 47090
L41470 47090
L41360 47060
L41300 47000
L41270 46940
" />
<path d="M41840 46460
L41870 46370
L41870 46230
L41840 46170
L41810 46140
L41760 46110
L41700 46110
L41640 46140
L41610 46170
L41590 46230
L41560 46340
L41530 46400
L41500 46430
L41440 46460
L41390 46460
L41330 46430
L41300 46400
L41270 46340
L41270 46200
L41300 46110
" />
</g>
<g style="fill:#840000; fill-opacity:0.0; 
stroke:#840000; stroke-width:60; stroke-opacity:1; 
stroke-linecap:round; stroke-linejoin:round;">
<path d="M39310 21760
L39560 21760
" />
<path d="M39430 22190
L39430 21760
" />
<path d="M39660 21760
L39950 22190
" />
<path d="M39950 21760
L39660 22190
" />
<path d="M40190 21760
L40240 21760
L40280 21780
L40300 21800
L40320 21840
L40340 21920
L40340 22030
L40320 22110
L40300 22150
L40280 22170
L40240 22190
L40190 22190
L40150 22170
L40130 22150
L40110 22110
L40090 22030
L40090 21920
L40110 21840
L40130 21800
L40150 21780
L40190 21760
" />
</g>
<g style="fill:#840000; fill-opacity:0.0; 
stroke:#840000; stroke-width:100; stroke-opacity:1; 
stroke-linecap:round; stroke-linejoin:round;">
<polyline fill="none;"
points="39000,22000
39210,22400
40650,22400
40650,22000
40650,21600
39210,21600
39000,22000
" /> 
</g>
<g style="fill:#840000; fill-opacity:0.0; 
stroke:#840000; stroke-width:60; stroke-opacity:1; 
stroke-linecap:round; stroke-linejoin:round;">
<path d="M39620 23190
L39470 22980
" />
<path d="M39370 23190
L39370 22760
L39540 22760
L39580 22780
L39600 22800
L39620 22840
L39620 22900
L39600 22940
L39580 22960
L39540 22980
L39370 22980
" />
<path d="M39760 22760
L40050 23190
" />
<path d="M40050 22760
L39760 23190
" />
<path d="M40440 23190
L40190 23190
" />
<path d="M40310 23190
L40310 22760
L40270 22820
L40230 22860
L40190 22880
" />
</g>
<g style="fill:#840000; fill-opacity:0.0; 
stroke:#840000; stroke-width:100; stroke-opacity:1; 
stroke-linecap:round; stroke-linejoin:round;">
<polyline fill="none;"
points="39000,23000
39210,23400
40750,23400
40750,23000
40750,22600
39210,22600
39000,23000
" /> 
</g>
<g style="fill:#840000; fill-opacity:0.0; 
stroke:#840000; stroke-width:0; stroke-opacity:1; 
stroke-linecap:round; stroke-linejoin:round;">
</g>
<g style="fill:#840000; fill-opacity:0.0; 
stroke:#840000; stroke-width:100; stroke-opacity:1; 
stroke-linecap:round; stroke-linejoin:round;">
<rect x="13000" y="33600" width="2000" height="800" rx="0" />
</g>
<g style="fill:#840000; fill-opacity:0.0; 
stroke:#840000; stroke-width:60; stroke-opacity:1; 
stroke-linecap:round; stroke-linejoin:round;">
<path d="M15000 34000
L15500 34000
" />
<path d="M13000 34000
L12500 34000
" />
</g>
<g style="fill:#008484; fill-opacity:0.0; 
stroke:#008484; stroke-width:60; stroke-opacity:1; 
stroke-linecap:round; stroke-linejoin:round;">
<path d="M13360 34560
L13270 34560
L13220 34580
L13200 34600
L13150 34680
L13130 34770
L13130 34960
L13150 35010
L13170 35030
L13220 35060
L13320 35060
L13360 35030
L13390 35010
L13410 34960
L13410 34840
L13390 34790
L13360 34770
L13320 34750
L13220 34750
L13170 34770
L13150 34790
L13130 34840
" />
<path d="M13700 34770
L13650 34750
L13630 34720
L13610 34680
L13610 34650
L13630 34600
L13650 34580
L13700 34560
L13800 34560
L13840 34580
L13870 34600
L13890 34650
L13890 34680
L13870 34720
L13840 34750
L13800 34770
L13700 34770
L13650 34790
L13630 34820
L13610 34870
L13610 34960
L13630 35010
L13650 35030
L13700 35060
L13800 35060
L13840 35030
L13870 35010
L13890 34960
L13890 34870
L13870 34820
L13840 34790
L13800 34770
" />
<path d="M14200 34560
L14250 34560
L14300 34580
L14320 34600
L14350 34650
L14370 34750
L14370 34870
L14350 34960
L14320 35010
L14300 35030
L14250 35060
L14200 35060
L14160 35030
L14130 35010
L14110 34960
L14090 34870
L14090 34750
L14110 34650
L14130 34600
L14160 34580
L14200 34560
" />
<path d="M14870 35060
L14710 34820
" />
<path d="M14590 35060
L14590 34560
L14780 34560
L14830 34580
L14850 34600
L14870 34650
L14870 34720
L14850 34770
L14830 34790
L14780 34820
L14590 34820
" />
<path d="M14150 34260
L13990 34020
" />
<path d="M13870 34260
L13870 33760
L14060 33760
L14110 33780
L14130 33800
L14150 33850
L14150 33920
L14130 33970
L14110 33990
L14060 34020
L13870 34020
" />
</g>
<g style="fill:#008484; fill-opacity:0.0; 
stroke:#008484; stroke-width:0; stroke-opacity:1; 
stroke-linecap:round; stroke-linejoin:round;">
</g>
<g style="fill:#840000; fill-opacity:0.0; 
stroke:#840000; stroke-width:0; stroke-opacity:1; 
stroke-linecap:round; stroke-linejoin:round;">
</g>
<g style="fill:#840000; fill-opacity:0.0; 
stroke:#840000; stroke-width:100; stroke-opacity:1; 
stroke-linecap:round; stroke-linejoin:round;">
<circle cx="22000" cy="45000" r="1110" /> 
</g>
<g style="fill:#840000; fill-opacity:0.0; 
stroke:#840000; stroke-width:60; stroke-opacity:1; 
stroke-linecap:round; stroke-linejoin:round;">
<polyline fill="none;"
points="21500,45000
21750,45000
" /> 
<polyline fill="none;"
points="22500,46000
21750,45250
" /> 
<polyline fill="none;"
points="22500,44000
21750,44750
" /> 
</g>
<g style="fill:#840000; fill-opacity:1.0; 
stroke:#840000; stroke-width:200; stroke-opacity:1; 
stroke-linecap:round; stroke-linejoin:round;">
<polyline style="fill-rule:evenodd;"
points="21750,44250
21750,45750
21750,45750
" /> 
</g>
<g style="fill:#840000; fill-opacity:1.0; 
stroke:#840000; stroke-width:60; stroke-opacity:1; 
stroke-linecap:round; stroke-linejoin:round;">
<polyline style="fill-rule:evenodd;"
points="22050,45750
22250,45550
21850,45350
22050,45750
22050,45750
" /> 
</g>
<g style="fill:#840000; fill-opacity:0.0; 
stroke:#840000; stroke-width:60; stroke-opacity:1; 
stroke-linecap:round; stroke-linejoin:round;">
<path d="M22500 46000
L22500 47000
" />
</g>
<g style="fill:#008484; fill-opacity:0.0; 
stroke:#008484; stroke-width:60; stroke-opacity:1; 
stroke-linecap:round; stroke-linejoin:round;">
<path d="M22110 46600
L22110 46430
" />
<path d="M22380 46360
L22380 46600
L21880 46600
L21880 46360
" />
</g>
<g style="fill:#840000; fill-opacity:0.0; 
stroke:#840000; stroke-width:60; stroke-opacity:1; 
stroke-linecap:round; stroke-linejoin:round;">
<path d="M23080 46360
L23080 46640
" />
<path d="M23080 46500
L22580 46500
L22650 46550
L22700 46600
L22720 46640
" />
<path d="M22500 44000
L22500 43000
" />
</g>
<g style="fill:#008484; fill-opacity:0.0; 
stroke:#008484; stroke-width:60; stroke-opacity:1; 
stroke-linecap:round; stroke-linejoin:round;">
<path d="M22330 43350
L22350 43370
L22380 43440
L22380 43490
L22350 43560
L22300 43610
L22260 43630
L22160 43650
L22090 43650
L22000 43630
L21950 43610
L21900 43560
L21880 43490
L21880 43440
L21900 43370
L21920 43350
" />
</g>
<g style="fill:#840000; fill-opacity:0.0; 
stroke:#840000; stroke-width:60; stroke-opacity:1; 
stroke-linecap:round; stroke-linejoin:round;">
<path d="M22620 43640
L22600 43620
L22580 43570
L22580 43450
L22600 43410
L22620 43380
L22670 43360
L22720 43360
L22790 43380
L23080 43670
L23080 43360
" />
<path d="M21500 45000
L19500 45000
" />
</g>
<g style="fill:#008484; fill-opacity:0.0; 
stroke:#008484; stroke-width:60; stroke-opacity:1; 
stroke-linecap:round; stroke-linejoin:round;">
<path d="M20540 44610
L20610 44640
L20630 44660
L20650 44710
L20650 44780
L20630 44830
L20610 44850
L20560 44880
L20370 44880
L20370 44380
L20540 44380
L20580 44400
L20610 44420
L20630 44470
L20630 44520
L20610 44570
L20580 44590
L20540 44610
L20370 44610
" />
</g>
<g style="fill:#840000; fill-opacity:0.0; 
stroke:#840000; stroke-width:60; stroke-opacity:1; 
stroke-linecap:round; stroke-linejoin:round;">
<path d="M20330 45080
L20640 45080
L20470 45270
L20550 45270
L20590 45290
L20620 45310
L20640 45360
L20640 45480
L20620 45530
L20590 45550
L20550 45580
L20400 45580
L20360 45550
L20330 45530
" />
</g>
<g style="fill:#008484; fill-opacity:0.0; 
stroke:#008484; stroke-width:60; stroke-opacity:1; 
stroke-linecap:round; stroke-linejoin:round;">
<path d="M23950 44550
L23900 44530
L23860 44480
L23790 44410
L23740 44390
L23690 44390
" />
<path d="M23710 44510
L23670 44480
L23620 44430
L23600 44340
L23600 44170
L23620 44080
L23670 44030
L23710 44010
L23810 44010
L23860 44030
L23900 44080
L23930 44170
L23930 44340
L23900 44430
L23860 44480
L23810 44510
L23710 44510
" />
<path d="M24210 44460
L24230 44480
L24210 44510
L24190 44480
L24210 44460
L24210 44510
" />
<path d="M24120 44030
L24160 44010
L24280 44010
L24330 44030
L24350 44080
L24350 44130
L24330 44170
L24310 44200
L24260 44220
L24230 44240
L24210 44290
L24210 44320
" />
<path d="M23620 45260
L23620 44760
" />
<path d="M23900 45260
L23690 44970
" />
<path d="M23900 44760
L23620 45040
" />
<path d="M24100 45230
L24170 45260
L24290 45260
L24330 45230
L24360 45210
L24380 45160
L24380 45110
L24360 45070
L24330 45040
L24290 45020
L24190 44990
L24140 44970
L24120 44950
L24100 44900
L24100 44850
L24120 44800
L24140 44780
L24190 44760
L24310 44760
L24380 44780
" />
<path d="M24600 45260
L24600 44760
L24720 44760
L24790 44780
L24840 44830
L24860 44880
L24880 44970
L24880 45040
L24860 45140
L24840 45180
L24790 45230
L24720 45260
L24600 45260
" />
<path d="M25310 44920
L25310 45260
" />
<path d="M25190 44730
L25080 45090
L25380 45090
" />
<path d="M25530 44760
L25860 44760
L25650 45260
" />
<path d="M26320 45260
L26040 45260
" />
<path d="M26180 45260
L26180 44760
L26130 44830
L26080 44880
L26040 44900
" />
<path d="M26520 45110
L26750 45110
" />
<path d="M26470 45260
L26630 44760
L26800 45260
" />
<path d="M27490 45450
L27470 45420
L27420 45350
L27400 45300
L27370 45230
L27350 45110
L27350 45020
L27370 44900
L27400 44830
L27420 44780
L27470 44710
L27490 44680
" />
<path d="M27750 44970
L27700 44950
L27680 44920
L27660 44880
L27660 44850
L27680 44800
L27700 44780
L27750 44760
L27850 44760
L27890 44780
L27920 44800
L27940 44850
L27940 44880
L27920 44920
L27890 44950
L27850 44970
L27750 44970
L27700 44990
L27680 45020
L27660 45070
L27660 45160
L27680 45210
L27700 45230
L27750 45260
L27850 45260
L27890 45230
L27920 45210
L27940 45160
L27940 45070
L27920 45020
L27890 44990
L27850 44970
" />
<path d="M28250 44760
L28300 44760
L28350 44780
L28370 44800
L28400 44850
L28420 44950
L28420 45070
L28400 45160
L28370 45210
L28350 45230
L28300 45260
L28250 45260
L28210 45230
L28180 45210
L28160 45160
L28140 45070
L28140 44950
L28160 44850
L28180 44800
L28210 44780
L28250 44760
" />
<path d="M28850 44760
L28760 44760
L28710 44780
L28690 44800
L28640 44880
L28620 44970
L28620 45160
L28640 45210
L28660 45230
L28710 45260
L28810 45260
L28850 45230
L28880 45210
L28900 45160
L28900 45040
L28880 44990
L28850 44970
L28810 44950
L28710 44950
L28660 44970
L28640 44990
L28620 45040
" />
<path d="M29120 45070
L29500 45070
" />
<path d="M29950 44920
L29950 45260
" />
<path d="M29830 44730
L29720 45090
L30020 45090
" />
<path d="M30460 44760
L30220 44760
L30200 44990
L30220 44970
L30270 44950
L30390 44950
L30430 44970
L30460 44990
L30480 45040
L30480 45160
L30460 45210
L30430 45230
L30390 45260
L30270 45260
L30220 45230
L30200 45210
" />
<path d="M30910 44920
L30910 45260
" />
<path d="M30790 44730
L30680 45090
L30980 45090
" />
<path d="M31250 44970
L31200 44950
L31180 44920
L31160 44880
L31160 44850
L31180 44800
L31200 44780
L31250 44760
L31350 44760
L31390 44780
L31420 44800
L31440 44850
L31440 44880
L31420 44920
L31390 44950
L31350 44970
L31250 44970
L31200 44990
L31180 45020
L31160 45070
L31160 45160
L31180 45210
L31200 45230
L31250 45260
L31350 45260
L31390 45230
L31420 45210
L31440 45160
L31440 45070
L31420 45020
L31390 44990
L31350 44970
" />
<path d="M31610 45450
L31640 45420
L31680 45350
L31710 45300
L31730 45230
L31750 45110
L31750 45020
L31730 44900
L31710 44830
L31680 44780
L31640 44710
L31610 44680
" />
</g>
<g style="fill:#840000; fill-opacity:0.0; 
stroke:#840000; stroke-width:60; stroke-opacity:1; 
stroke-linecap:round; stroke-linejoin:round;">
<path d="M22770 41710
L22770 42000
L22170 42000
" />
<path d="M22830 41650
L22830 41190
" />
<path d="M22200 40730
L22170 40790
L22170 40880
L22200 40960
L22260 41020
L22310 41050
L22430 41080
L22510 41080
L22630 41050
L22690 41020
L22740 40960
L22770 40880
L22770 40820
L22740 40730
L22710 40700
L22510 40700
L22510 40820
" />
<path d="M22770 40450
L22170 40450
L22770 40100
L22170 40100
" />
<path d="M22770 39820
L22170 39820
L22170 39670
L22200 39590
L22260 39530
L22310 39500
L22430 39470
L22510 39470
L22630 39500
L22690 39530
L22740 39590
L22770 39670
L22770 39820
" />
</g>
<g style="fill:#840000; fill-opacity:0.0; 
stroke:#840000; stroke-width:100; stroke-opacity:1; 
stroke-linecap:round; stroke-linejoin:round;">
<polyline fill="none;"
points="22500,42500
23040,42200
23040,39130
22500,39130
21960,39130
21960,42200
22500,42500
" /> 
</g>
<g style="fill:#840000; fill-opacity:0.0; 
stroke:#840000; stroke-width:60; stroke-opacity:1; 
stroke-linecap:round; stroke-linejoin:round;">
<path d="M22200 49230
L22170 49290
L22170 49380
L22200 49460
L22260 49520
L22310 49550
L22430 49580
L22510 49580
L22630 49550
L22690 49520
L22740 49460
L22770 49380
L22770 49320
L22740 49230
L22710 49200
L22510 49200
L22510 49320
" />
<path d="M22770 48950
L22170 48950
L22770 48600
L22170 48600
" />
<path d="M22770 48320
L22170 48320
L22170 48170
L22200 48090
L22260 48030
L22310 48000
L22430 47970
L22510 47970
L22630 48000
L22690 48030
L22740 48090
L22770 48170
L22770 48320
" />
</g>
<g style="fill:#840000; fill-opacity:0.0; 
stroke:#840000; stroke-width:100; stroke-opacity:1; 
stroke-linecap:round; stroke-linejoin:round;">
<polyline fill="none;"
points="22500,47500
21960,47800
21960,49920
22500,49920
23040,49920
23040,47800
22500,47500
" /> 
</g>
<g style="fill:#840000; fill-opacity:0.0; 
stroke:#840000; stroke-width:0; stroke-opacity:1; 
stroke-linecap:round; stroke-linejoin:round;">
</g>
<g style="fill:#840000; fill-opacity:0.0; 
stroke:#840000; stroke-width:100; stroke-opacity:1; 
stroke-linecap:round; stroke-linejoin:round;">
<rect x="16500" y="44600" width="2000" height="800" rx="0" />
</g>
<g style="fill:#840000; fill-opacity:0.0; 
stroke:#840000; stroke-width:60; stroke-opacity:1; 
stroke-linecap:round; stroke-linejoin:round;">
<path d="M18500 45000
L19000 45000
" />
<path d="M16500 45000
L16000 45000
" />
</g>
<g style="fill:#008484; fill-opacity:0.0; 
stroke:#008484; stroke-width:60; stroke-opacity:1; 
stroke-linecap:round; stroke-linejoin:round;">
<path d="M16860 45560
L16770 45560
L16720 45580
L16700 45600
L16650 45680
L16630 45770
L16630 45960
L16650 46010
L16670 46030
L16720 46060
L16820 46060
L16860 46030
L16890 46010
L16910 45960
L16910 45840
L16890 45790
L16860 45770
L16820 45750
L16720 45750
L16670 45770
L16650 45790
L16630 45840
" />
<path d="M17200 45770
L17150 45750
L17130 45720
L17110 45680
L17110 45650
L17130 45600
L17150 45580
L17200 45560
L17300 45560
L17340 45580
L17370 45600
L17390 45650
L17390 45680
L17370 45720
L17340 45750
L17300 45770
L17200 45770
L17150 45790
L17130 45820
L17110 45870
L17110 45960
L17130 46010
L17150 46030
L17200 46060
L17300 46060
L17340 46030
L17370 46010
L17390 45960
L17390 45870
L17370 45820
L17340 45790
L17300 45770
" />
<path d="M17700 45560
L17750 45560
L17800 45580
L17820 45600
L17850 45650
L17870 45750
L17870 45870
L17850 45960
L17820 46010
L17800 46030
L17750 46060
L17700 46060
L17660 46030
L17630 46010
L17610 45960
L17590 45870
L17590 45750
L17610 45650
L17630 45600
L17660 45580
L17700 45560
" />
<path d="M18370 46060
L18210 45820
" />
<path d="M18090 46060
L18090 45560
L18280 45560
L18330 45580
L18350 45600
L18370 45650
L18370 45720
L18350 45770
L18330 45790
L18280 45820
L18090 45820
" />
<path d="M17650 45260
L17490 45020
" />
<path d="M17370 45260
L17370 44760
L17560 44760
L17610 44780
L17630 44800
L17650 44850
L17650 44920
L17630 44970
L17610 44990
L17560 45020
L17370 45020
" />
</g>
<g style="fill:#840000; fill-opacity:0.0; 
stroke:#840000; stroke-width:60; stroke-opacity:1; 
stroke-linecap:round; stroke-linejoin:round;">
<path d="M9920 45100
L10210 45100
" />
<path d="M9870 45270
L10070 44670
L10270 45270
" />
<path d="M10460 45270
L10460 44870
" />
<path d="M10460 44990
L10490 44930
L10520 44900
L10580 44870
L10630 44870
" />
<path d="M11090 45270
L11090 44670
" />
<path d="M11090 45240
L11030 45270
L10920 45270
L10860 45240
L10830 45210
L10800 45160
L10800 44990
L10830 44930
L10860 44900
L10920 44870
L11030 44870
L11090 44900
" />
<path d="M11630 44870
L11630 45270
" />
<path d="M11370 44870
L11370 45190
L11400 45240
L11460 45270
L11540 45270
L11600 45240
L11630 45210
" />
<path d="M11910 45270
L11910 44870
" />
<path d="M11910 44670
L11880 44700
L11910 44730
L11940 44700
L11910 44670
L11910 44730
" />
<path d="M12200 44870
L12200 45270
" />
<path d="M12200 44930
L12230 44900
L12290 44870
L12370 44870
L12430 44900
L12460 44960
L12460 45270
" />
<path d="M12830 45270
L12770 45240
L12740 45210
L12710 45160
L12710 44990
L12740 44930
L12770 44900
L12830 44870
L12910 44870
L12970 44900
L13000 44930
L13030 44990
L13030 45160
L13000 45210
L12970 45240
L12910 45270
L12830 45270
" />
<path d="M13280 45270
L13280 44670
L13510 44670
L13570 44700
L13600 44730
L13630 44790
L13630 44870
L13600 44930
L13570 44960
L13510 44990
L13280 44990
" />
<path d="M13880 45270
L13880 44870
" />
<path d="M13880 44670
L13850 44700
L13880 44730
L13910 44700
L13880 44670
L13880 44730
" />
<path d="M14170 44870
L14170 45270
" />
<path d="M14170 44930
L14200 44900
L14260 44870
L14340 44870
L14400 44900
L14430 44960
L14430 45270
" />
<path d="M14970 44870
L14970 45270
" />
<path d="M14830 44640
L14680 45070
L15060 45070
" />
</g>
<g style="fill:#840000; fill-opacity:0.0; 
stroke:#840000; stroke-width:100; stroke-opacity:1; 
stroke-linecap:round; stroke-linejoin:round;">
<polyline fill="none;"
points="15500,45000
15200,44460
9580,44460
9580,45000
9580,45540
15200,45540
15500,45000
" /> 
</g>
<g style="fill:#840000; fill-opacity:0.0; 
stroke:#840000; stroke-width:0; stroke-opacity:1; 
stroke-linecap:round; stroke-linejoin:round;">
</g>
<g style="fill:#840000; fill-opacity:0.0; 
stroke:#840000; stroke-width:100; stroke-opacity:1; 
stroke-linecap:round; stroke-linejoin:round;">
<circle cx="18500" cy="34000" r="1110" /> 
</g>
<g style="fill:#840000; fill-opacity:0.0; 
stroke:#840000; stroke-width:60; stroke-opacity:1; 
stroke-linecap:round; stroke-linejoin:round;">
<polyline fill="none;"
points="18000,34000
18250,34000
" /> 
<polyline fill="none;"
points="19000,35000
18250,34250
" /> 
<polyline fill="none;"
points="19000,33000
18250,33750
" /> 
</g>
<g style="fill:#840000; fill-opacity:1.0; 
stroke:#840000; stroke-width:200; stroke-opacity:1; 
stroke-linecap:round; stroke-linejoin:round;">
<polyline style="fill-rule:evenodd;"
points="18250,33250
18250,34750
18250,34750
" /> 
</g>
<g style="fill:#840000; fill-opacity:1.0; 
stroke:#840000; stroke-width:60; stroke-opacity:1; 
stroke-linecap:round; stroke-linejoin:round;">
<polyline style="fill-rule:evenodd;"
points="18550,34750
18750,34550
18350,34350
18550,34750
18550,34750
" /> 
</g>
<g style="fill:#840000; fill-opacity:0.0; 
stroke:#840000; stroke-width:60; stroke-opacity:1; 
stroke-linecap:round; stroke-linejoin:round;">
<path d="M19000 35000
L19000 36000
" />
</g>
<g style="fill:#008484; fill-opacity:0.0; 
stroke:#008484; stroke-width:60; stroke-opacity:1; 
stroke-linecap:round; stroke-linejoin:round;">
<path d="M18610 35600
L18610 35430
" />
<path d="M18880 35360
L18880 35600
L18380 35600
L18380 35360
" />
</g>
<g style="fill:#840000; fill-opacity:0.0; 
stroke:#840000; stroke-width:60; stroke-opacity:1; 
stroke-linecap:round; stroke-linejoin:round;">
<path d="M19580 35360
L19580 35640
" />
<path d="M19580 35500
L19080 35500
L19150 35550
L19200 35600
L19220 35640
" />
<path d="M19000 33000
L19000 32000
" />
</g>
<g style="fill:#008484; fill-opacity:0.0; 
stroke:#008484; stroke-width:60; stroke-opacity:1; 
stroke-linecap:round; stroke-linejoin:round;">
<path d="M18830 32350
L18850 32370
L18880 32440
L18880 32490
L18850 32560
L18800 32610
L18760 32630
L18660 32650
L18590 32650
L18500 32630
L18450 32610
L18400 32560
L18380 32490
L18380 32440
L18400 32370
L18420 32350
" />
</g>
<g style="fill:#840000; fill-opacity:0.0; 
stroke:#840000; stroke-width:60; stroke-opacity:1; 
stroke-linecap:round; stroke-linejoin:round;">
<path d="M19120 32640
L19100 32620
L19080 32570
L19080 32450
L19100 32410
L19120 32380
L19170 32360
L19220 32360
L19290 32380
L19580 32670
L19580 32360
" />
<path d="M18000 34000
L16000 34000
" />
</g>
<g style="fill:#008484; fill-opacity:0.0; 
stroke:#008484; stroke-width:60; stroke-opacity:1; 
stroke-linecap:round; stroke-linejoin:round;">
<path d="M17040 33610
L17110 33640
L17130 33660
L17150 33710
L17150 33780
L17130 33830
L17110 33850
L17060 33880
L16870 33880
L16870 33380
L17040 33380
L17080 33400
L17110 33420
L17130 33470
L17130 33520
L17110 33570
L17080 33590
L17040 33610
L16870 33610
" />
</g>
<g style="fill:#840000; fill-opacity:0.0; 
stroke:#840000; stroke-width:60; stroke-opacity:1; 
stroke-linecap:round; stroke-linejoin:round;">
<path d="M16830 34080
L17140 34080
L16970 34270
L17050 34270
L17090 34290
L17120 34310
L17140 34360
L17140 34480
L17120 34530
L17090 34550
L17050 34580
L16900 34580
L16860 34550
L16830 34530
" />
</g>
<g style="fill:#008484; fill-opacity:0.0; 
stroke:#008484; stroke-width:60; stroke-opacity:1; 
stroke-linecap:round; stroke-linejoin:round;">
<path d="M20450 33550
L20400 33530
L20360 33480
L20290 33410
L20240 33390
L20190 33390
" />
<path d="M20210 33510
L20170 33480
L20120 33430
L20100 33340
L20100 33170
L20120 33080
L20170 33030
L20210 33010
L20310 33010
L20360 33030
L20400 33080
L20430 33170
L20430 33340
L20400 33430
L20360 33480
L20310 33510
L20210 33510
" />
<path d="M20710 33460
L20730 33480
L20710 33510
L20690 33480
L20710 33460
L20710 33510
" />
<path d="M20620 33030
L20660 33010
L20780 33010
L20830 33030
L20850 33080
L20850 33130
L20830 33170
L20810 33200
L20760 33220
L20730 33240
L20710 33290
L20710 33320
" />
<path d="M20120 34260
L20120 33760
" />
<path d="M20400 34260
L20190 33970
" />
<path d="M20400 33760
L20120 34040
" />
<path d="M20600 34230
L20670 34260
L20790 34260
L20830 34230
L20860 34210
L20880 34160
L20880 34110
L20860 34070
L20830 34040
L20790 34020
L20690 33990
L20640 33970
L20620 33950
L20600 33900
L20600 33850
L20620 33800
L20640 33780
L20690 33760
L20810 33760
L20880 33780
" />
<path d="M21100 34260
L21100 33760
L21220 33760
L21290 33780
L21340 33830
L21360 33880
L21380 33970
L21380 34040
L21360 34140
L21340 34180
L21290 34230
L21220 34260
L21100 34260
" />
<path d="M21810 33920
L21810 34260
" />
<path d="M21690 33730
L21580 34090
L21880 34090
" />
<path d="M22030 33760
L22360 33760
L22150 34260
" />
<path d="M22820 34260
L22540 34260
" />
<path d="M22680 34260
L22680 33760
L22630 33830
L22580 33880
L22540 33900
" />
<path d="M23020 34110
L23250 34110
" />
<path d="M22970 34260
L23130 33760
L23300 34260
" />
<path d="M23990 34450
L23970 34420
L23920 34350
L23900 34300
L23870 34230
L23850 34110
L23850 34020
L23870 33900
L23900 33830
L23920 33780
L23970 33710
L23990 33680
" />
<path d="M24250 33970
L24200 33950
L24180 33920
L24160 33880
L24160 33850
L24180 33800
L24200 33780
L24250 33760
L24350 33760
L24390 33780
L24420 33800
L24440 33850
L24440 33880
L24420 33920
L24390 33950
L24350 33970
L24250 33970
L24200 33990
L24180 34020
L24160 34070
L24160 34160
L24180 34210
L24200 34230
L24250 34260
L24350 34260
L24390 34230
L24420 34210
L24440 34160
L24440 34070
L24420 34020
L24390 33990
L24350 33970
" />
<path d="M24750 33760
L24800 33760
L24850 33780
L24870 33800
L24900 33850
L24920 33950
L24920 34070
L24900 34160
L24870 34210
L24850 34230
L24800 34260
L24750 34260
L24710 34230
L24680 34210
L24660 34160
L24640 34070
L24640 33950
L24660 33850
L24680 33800
L24710 33780
L24750 33760
" />
<path d="M25350 33760
L25260 33760
L25210 33780
L25190 33800
L25140 33880
L25120 33970
L25120 34160
L25140 34210
L25160 34230
L25210 34260
L25310 34260
L25350 34230
L25380 34210
L25400 34160
L25400 34040
L25380 33990
L25350 33970
L25310 33950
L25210 33950
L25160 33970
L25140 33990
L25120 34040
" />
<path d="M25620 34070
L26000 34070
" />
<path d="M26450 33920
L26450 34260
" />
<path d="M26330 33730
L26220 34090
L26520 34090
" />
<path d="M26960 33760
L26720 33760
L26700 33990
L26720 33970
L26770 33950
L26890 33950
L26930 33970
L26960 33990
L26980 34040
L26980 34160
L26960 34210
L26930 34230
L26890 34260
L26770 34260
L26720 34230
L26700 34210
" />
<path d="M27410 33920
L27410 34260
" />
<path d="M27290 33730
L27180 34090
L27480 34090
" />
<path d="M27750 33970
L27700 33950
L27680 33920
L27660 33880
L27660 33850
L27680 33800
L27700 33780
L27750 33760
L27850 33760
L27890 33780
L27920 33800
L27940 33850
L27940 33880
L27920 33920
L27890 33950
L27850 33970
L27750 33970
L27700 33990
L27680 34020
L27660 34070
L27660 34160
L27680 34210
L27700 34230
L27750 34260
L27850 34260
L27890 34230
L27920 34210
L27940 34160
L27940 34070
L27920 34020
L27890 33990
L27850 33970
" />
<path d="M28110 34450
L28140 34420
L28180 34350
L28210 34300
L28230 34230
L28250 34110
L28250 34020
L28230 33900
L28210 33830
L28180 33780
L28140 33710
L28110 33680
" />
</g>
<g style="fill:#000000; fill-opacity:0.0; 
stroke:#000000; stroke-width:60; stroke-opacity:1; 
stroke-linecap:round; stroke-linejoin:round;">
<path d="M41870 44860
L41270 44860
L41270 44630
L41300 44570
L41330 44540
L41390 44510
L41470 44510
L41530 44540
L41560 44570
L41590 44630
L41590 44860
" />
<path d="M41560 44060
L41590 43970
L41610 43940
L41670 43910
L41760 43910
L41810 43940
L41840 43970
L41870 44030
L41870 44260
L41270 44260
L41270 44060
L41300 44000
L41330 43970
L41390 43940
L41440 43940
L41500 43970
L41530 44000
L41560 44060
L41560 44260
" />
<path d="M41700 43690
L41700 43400
" />
<path d="M41870 43740
L41270 43540
L41870 43340
" />
<path d="M41270 43230
L41270 42890
" />
<path d="M41870 43060
L41270 43060
" />
<path d="M41270 42770
L41270 42430
" />
<path d="M41870 42600
L41270 42600
" />
<path d="M41870 42230
L41270 42230
L41870 41880
L41270 41880
" />
<path d="M41560 41600
L41560 41400
" />
<path d="M41870 41310
L41870 41600
L41270 41600
L41270 41310
" />
<path d="M41300 40740
L41270 40800
L41270 40890
L41300 40970
L41360 41030
L41410 41060
L41530 41090
L41610 41090
L41730 41060
L41790 41030
L41840 40970
L41870 40890
L41870 40830
L41840 40740
L41810 40710
L41610 40710
L41610 40830
" />
</g>
<g style="fill:#008400; fill-opacity:0.0; 
stroke:#008400; stroke-width:60; stroke-opacity:1; 
stroke-linecap:round; stroke-linejoin:round;">
<path d="M19000 24000
L19000 25000
" />
<path d="M19000 25000
L19000 32000
" />
<path d="M19000 36000
L19000 37000
" />
<path d="M19000 19000
L19000 21000
" />
<path d="M19000 19000
L22500 19000
" />
<path d="M22500 19000
L25000 19000
" />
<path d="M19000 25000
L25000 25000
" />
</g>
<g style="fill:#008400; fill-opacity:0.0; 
stroke:#008400; stroke-width:0; stroke-opacity:1; 
stroke-linecap:round; stroke-linejoin:round;">
</g>
<g style="fill:#008400; fill-opacity:1.0; 
stroke:#008400; stroke-width:100; stroke-opacity:1; 
stroke-linecap:round; stroke-linejoin:round;">
<circle cx="19000" cy="25000" r="200" /> 
</g>
<g style="fill:#008400; fill-opacity:1.0; 
stroke:#008400; stroke-width:60; stroke-opacity:1; 
stroke-linecap:round; stroke-linejoin:round;">
</g>
<g style="fill:#008400; fill-opacity:0.0; 
stroke:#008400; stroke-width:60; stroke-opacity:1; 
stroke-linecap:round; stroke-linejoin:round;">
<path d="M39000 30000
L44500 30000
" />
<path d="M44500 30000
L48500 30000
" />
<path d="M44500 14500
L22500 14500
" />
<path d="M22500 14500
L22500 19000
" />
</g>
<g style="fill:#008400; fill-opacity:0.0; 
stroke:#008400; stroke-width:0; stroke-opacity:1; 
stroke-linecap:round; stroke-linejoin:round;">
</g>
<g style="fill:#008400; fill-opacity:1.0; 
stroke:#008400; stroke-width:100; stroke-opacity:1; 
stroke-linecap:round; stroke-linejoin:round;">
<circle cx="22500" cy="19000" r="200" /> 
</g>
<g style="fill:#008400; fill-opacity:1.0; 
stroke:#008400; stroke-width:0; stroke-opacity:1; 
stroke-linecap:round; stroke-linejoin:round;">
</g>
<g style="fill:#008400; fill-opacity:1.0; 
stroke:#008400; stroke-width:100; stroke-opacity:1; 
stroke-linecap:round; stroke-linejoin:round;">
<circle cx="44500" cy="30000" r="200" /> 
</g>
<g style="fill:#008400; fill-opacity:1.0; 
stroke:#008400; stroke-width:60; stroke-opacity:1; 
stroke-linecap:round; stroke-linejoin:round;">
</g>
<g style="fill:#008400; fill-opacity:0.0; 
stroke:#008400; stroke-width:60; stroke-opacity:1; 
stroke-linecap:round; stroke-linejoin:round;">
<path d="M19000 45000
L19500 45000
" />
<path d="M16000 45000
L15500 45000
" />
<path d="M22500 43000
L22500 42500
" />
<path d="M22500 47000
L22500 47500
" />
<path d="M16000 34000
L15500 34000
" />
<path d="M12500 34000
L12000 34000
" />
<path d="M41500 45000
L43500 45000
" />
<path d="M43500 45000
L46500 45000
" />
<path d="M50500 45000
L55000 45000
" />
<path d="M55000 46000
L41500 46000
" />
<path d="M49000 35500
L48000 35500
" />
<path d="M48000 35500
L48000 36500
" />
<path d="M48000 39500
L48000 41000
" />
<path d="M48000 41000
L48000 42000
" />
<path d="M39000 29000
L40000 29000
" />
<path d="M40000 29000
L48500 29000
" />
<path d="M40000 29000
L40000 37000
" />
<path d="M40000 37000
L19000 37000
" />
</g>
<g style="fill:#008400; fill-opacity:0.0; 
stroke:#008400; stroke-width:0; stroke-opacity:1; 
stroke-linecap:round; stroke-linejoin:round;">
</g>
<g style="fill:#008400; fill-opacity:1.0; 
stroke:#008400; stroke-width:100; stroke-opacity:1; 
stroke-linecap:round; stroke-linejoin:round;">
<circle cx="40000" cy="29000" r="200" /> 
</g>
<g style="fill:#008400; fill-opacity:1.0; 
stroke:#008400; stroke-width:60; stroke-opacity:1; 
stroke-linecap:round; stroke-linejoin:round;">
</g>
<g style="fill:#008400; fill-opacity:0.0; 
stroke:#008400; stroke-width:60; stroke-opacity:1; 
stroke-linecap:round; stroke-linejoin:round;">
<path d="M52500 31000
L48500 31000
" />
<path d="M48500 31000
L48500 30000
" />
<path d="M48500 29000
L48500 28000
" />
<path d="M48500 28000
L52500 28000
" />
<path d="M44500 30000
L44500 14500
" />
</g>
<g style="fill:#008400; fill-opacity:0.0; 
stroke:#008400; stroke-width:0; stroke-opacity:1; 
stroke-linecap:round; stroke-linejoin:round;">
</g>
<g style="fill:#840000; fill-opacity:0.0; 
stroke:#840000; stroke-width:0; stroke-opacity:1; 
stroke-linecap:round; stroke-linejoin:round;">
</g>
<g style="fill:#840000; fill-opacity:0.0; 
stroke:#840000; stroke-width:100; stroke-opacity:1; 
stroke-linecap:round; stroke-linejoin:round;">
<rect x="44500" y="40600" width="2000" height="800" rx="0" />
</g>
<g style="fill:#840000; fill-opacity:0.0; 
stroke:#840000; stroke-width:60; stroke-opacity:1; 
stroke-linecap:round; stroke-linejoin:round;">
<path d="M44500 41000
L44000 41000
" />
<path d="M46500 41000
L47000 41000
" />
</g>
<g style="fill:#008484; fill-opacity:0.0; 
stroke:#008484; stroke-width:60; stroke-opacity:1; 
stroke-linecap:round; stroke-linejoin:round;">
<path d="M45200 40390
L44920 40390
" />
<path d="M45060 40390
L45060 39890
L45010 39960
L44960 40010
L44920 40030
" />
<path d="M45510 39890
L45560 39890
L45610 39910
L45630 39930
L45660 39980
L45680 40080
L45680 40200
L45660 40290
L45630 40340
L45610 40360
L45560 40390
L45510 40390
L45470 40360
L45440 40340
L45420 40290
L45400 40200
L45400 40080
L45420 39980
L45440 39930
L45470 39910
L45510 39890
" />
<path d="M45900 40390
L45900 39890
" />
<path d="M45950 40200
L46090 40390
" />
<path d="M46090 40050
L45900 40240
" />
<path d="M45650 41190
L45490 40950
" />
<path d="M45370 41190
L45370 40690
L45560 40690
L45610 40710
L45630 40730
L45650 40780
L45650 40850
L45630 40900
L45610 40920
L45560 40950
L45370 40950
" />
</g>
<g style="fill:#008484; fill-opacity:0.0; 
stroke:#008484; stroke-width:0; stroke-opacity:1; 
stroke-linecap:round; stroke-linejoin:round;">
</g>
<g style="fill:#840000; fill-opacity:0.0; 
stroke:#840000; stroke-width:0; stroke-opacity:1; 
stroke-linecap:round; stroke-linejoin:round;">
</g>
<g style="fill:#840000; fill-opacity:0.0; 
stroke:#840000; stroke-width:100; stroke-opacity:1; 
stroke-linecap:round; stroke-linejoin:round;">
<circle cx="48500" cy="44500" r="1110" /> 
</g>
<g style="fill:#840000; fill-opacity:0.0; 
stroke:#840000; stroke-width:60; stroke-opacity:1; 
stroke-linecap:round; stroke-linejoin:round;">
<circle cx="48000" cy="45000" r="50" /> 
<circle cx="49000" cy="45000" r="50" /> 
</g>
<g style="fill:#840000; fill-opacity:0.0; 
stroke:#840000; stroke-width:200; stroke-opacity:1; 
stroke-linecap:round; stroke-linejoin:round;">
<polyline fill="none;"
points="48100,44250
47850,44250
" /> 
<polyline fill="none;"
points="48650,44250
48350,44250
" /> 
<polyline fill="none;"
points="49150,44250
48900,44250
" /> 
</g>
<g style="fill:#840000; fill-opacity:0.0; 
stroke:#840000; stroke-width:60; stroke-opacity:1; 
stroke-linecap:round; stroke-linejoin:round;">
<polyline fill="none;"
points="48650,45200
48600,45150
" /> 
<polyline fill="none;"
points="48650,45200
48650,45400
" /> 
<polyline fill="none;"
points="48650,45400
48700,45450
" /> 
</g>
<g style="fill:#840000; fill-opacity:0.0; 
stroke:#840000; stroke-width:100; stroke-opacity:1; 
stroke-linecap:round; stroke-linejoin:round;">
<polyline fill="none;"
points="49100,44000
47900,44000
47900,44000
" /> 
</g>
<g style="fill:#840000; fill-opacity:0.0; 
stroke:#840000; stroke-width:60; stroke-opacity:1; 
stroke-linecap:round; stroke-linejoin:round;">
<polyline fill="none;"
points="48000,44300
48000,45000
47500,45000
47500,45000
" /> 
<polyline fill="none;"
points="49000,44300
49000,45000
49500,45000
49500,45000
" /> 
<polyline fill="none;"
points="49000,45000
49000,45300
48000,45300
48000,45000
" /> 
</g>
<g style="fill:#840000; fill-opacity:1.0; 
stroke:#840000; stroke-width:60; stroke-opacity:1; 
stroke-linecap:round; stroke-linejoin:round;">
<polyline style="fill-rule:evenodd;"
points="48650,45300
48400,45200
48400,45400
48650,45300
" /> 
</g>
<g style="fill:#840000; fill-opacity:0.0; 
stroke:#840000; stroke-width:60; stroke-opacity:1; 
stroke-linecap:round; stroke-linejoin:round;">
<polyline fill="none;"
points="48500,44300
48500,44500
48500,45000
48000,45000
48000,45000
" /> 
</g>
<g style="fill:#840000; fill-opacity:1.0; 
stroke:#840000; stroke-width:60; stroke-opacity:1; 
stroke-linecap:round; stroke-linejoin:round;">
<polyline style="fill-rule:evenodd;"
points="48500,44350
48650,44750
48350,44750
48500,44350
48500,44400
48500,44400
" /> 
</g>
<g style="fill:#840000; fill-opacity:0.0; 
stroke:#840000; stroke-width:60; stroke-opacity:1; 
stroke-linecap:round; stroke-linejoin:round;">
<path d="M48000 44000
L48000 42000
" />
</g>
<g style="fill:#008484; fill-opacity:0.0; 
stroke:#008484; stroke-width:60; stroke-opacity:1; 
stroke-linecap:round; stroke-linejoin:round;">
<path d="M47400 42870
L47380 42920
L47380 42990
L47400 43060
L47450 43110
L47500 43130
L47590 43150
L47660 43150
L47760 43130
L47800 43110
L47850 43060
L47880 42990
L47880 42940
L47850 42870
L47830 42850
L47660 42850
L47660 42940
" />
</g>
<g style="fill:#840000; fill-opacity:0.0; 
stroke:#840000; stroke-width:60; stroke-opacity:1; 
stroke-linecap:round; stroke-linejoin:round;">
<path d="M48580 42860
L48580 43140
" />
<path d="M48580 43000
L48080 43000
L48150 43050
L48200 43100
L48220 43140
" />
<path d="M49500 45000
L50500 45000
" />
</g>
<g style="fill:#008484; fill-opacity:0.0; 
stroke:#008484; stroke-width:60; stroke-opacity:1; 
stroke-linecap:round; stroke-linejoin:round;">
<path d="M49870 44880
L49870 44380
L49990 44380
L50060 44400
L50110 44450
L50130 44500
L50150 44590
L50150 44660
L50130 44760
L50110 44800
L50060 44850
L49990 44880
L49870 44880
" />
</g>
<g style="fill:#840000; fill-opacity:0.0; 
stroke:#840000; stroke-width:60; stroke-opacity:1; 
stroke-linecap:round; stroke-linejoin:round;">
<path d="M49860 45120
L49880 45100
L49930 45080
L50050 45080
L50090 45100
L50120 45120
L50140 45170
L50140 45220
L50120 45290
L49830 45580
L50140 45580
" />
<path d="M47500 45000
L46500 45000
" />
</g>
<g style="fill:#008484; fill-opacity:0.0; 
stroke:#008484; stroke-width:60; stroke-opacity:1; 
stroke-linecap:round; stroke-linejoin:round;">
<path d="M46860 44850
L46930 44880
L47050 44880
L47090 44850
L47120 44830
L47140 44780
L47140 44730
L47120 44690
L47090 44660
L47050 44640
L46950 44610
L46900 44590
L46880 44570
L46860 44520
L46860 44470
L46880 44420
L46900 44400
L46950 44380
L47070 44380
L47140 44400
" />
</g>
<g style="fill:#840000; fill-opacity:0.0; 
stroke:#840000; stroke-width:60; stroke-opacity:1; 
stroke-linecap:round; stroke-linejoin:round;">
<path d="M46830 45080
L47140 45080
L46970 45270
L47050 45270
L47090 45290
L47120 45310
L47140 45360
L47140 45480
L47120 45530
L47090 45550
L47050 45580
L46900 45580
L46860 45550
L46830 45530
" />
</g>
<g style="fill:#008484; fill-opacity:0.0; 
stroke:#008484; stroke-width:60; stroke-opacity:1; 
stroke-linecap:round; stroke-linejoin:round;">
<path d="M49480 46990
L49460 47040
L49410 47080
L49340 47150
L49320 47200
L49320 47250
" />
<path d="M49440 47230
L49410 47270
L49360 47320
L49270 47340
L49100 47340
L49010 47320
L48960 47270
L48940 47230
L48940 47130
L48960 47080
L49010 47040
L49100 47010
L49270 47010
L49360 47040
L49410 47080
L49440 47130
L49440 47230
" />
<path d="M49390 46730
L49410 46710
L49440 46730
L49410 46750
L49390 46730
L49440 46730
" />
<path d="M48960 46820
L48940 46780
L48940 46660
L48960 46610
L49010 46590
L49060 46590
L49100 46610
L49130 46630
L49150 46680
L49170 46710
L49220 46730
L49250 46730
" />
<path d="M48900 42260
L48740 42020
" />
<path d="M48620 42260
L48620 41760
L48810 41760
L48860 41780
L48880 41800
L48900 41850
L48900 41920
L48880 41970
L48860 41990
L48810 42020
L48620 42020
" />
<path d="M49290 41990
L49120 41990
" />
<path d="M49120 42260
L49120 41760
L49360 41760
" />
<path d="M49550 42260
L49550 41760
L49670 41760
L49740 41780
L49790 41830
L49810 41880
L49830 41970
L49830 42040
L49810 42140
L49790 42180
L49740 42230
L49670 42260
L49550 42260
" />
<path d="M50310 42260
L50030 42260
" />
<path d="M50170 42260
L50170 41760
L50120 41830
L50070 41880
L50030 41900
" />
<path d="M50740 41920
L50740 42260
" />
<path d="M50620 41730
L50510 42090
L50810 42090
" />
<path d="M51010 42260
L51010 41760
L51290 42260
L51290 41760
" />
<path d="M51620 41760
L51670 41760
L51720 41780
L51740 41800
L51770 41850
L51790 41950
L51790 42070
L51770 42160
L51740 42210
L51720 42230
L51670 42260
L51620 42260
L51580 42230
L51550 42210
L51530 42160
L51510 42070
L51510 41950
L51530 41850
L51550 41800
L51580 41780
L51620 41760
" />
<path d="M52250 41760
L52010 41760
L51990 41990
L52010 41970
L52060 41950
L52180 41950
L52220 41970
L52250 41990
L52270 42040
L52270 42160
L52250 42210
L52220 42230
L52180 42260
L52060 42260
L52010 42230
L51990 42210
" />
<path d="M52730 42260
L52490 42260
L52490 41760
" />
<path d="M53410 42450
L53390 42420
L53340 42350
L53320 42300
L53290 42230
L53270 42110
L53270 42020
L53290 41900
L53320 41830
L53340 41780
L53390 41710
L53410 41680
" />
<path d="M53550 41760
L53860 41760
L53690 41950
L53770 41950
L53810 41970
L53840 41990
L53860 42040
L53860 42160
L53840 42210
L53810 42230
L53770 42260
L53620 42260
L53580 42230
L53550 42210
" />
<path d="M54060 41800
L54080 41780
L54130 41760
L54250 41760
L54290 41780
L54320 41800
L54340 41850
L54340 41900
L54320 41970
L54030 42260
L54340 42260
" />
<path d="M54800 41760
L54560 41760
L54540 41990
L54560 41970
L54610 41950
L54730 41950
L54770 41970
L54800 41990
L54820 42040
L54820 42160
L54800 42210
L54770 42230
L54730 42260
L54610 42260
L54560 42230
L54540 42210
" />
<path d="M55040 42070
L55420 42070
" />
<path d="M55610 41760
L55940 41760
L55730 42260
" />
<path d="M56380 41760
L56140 41760
L56120 41990
L56140 41970
L56190 41950
L56310 41950
L56350 41970
L56380 41990
L56400 42040
L56400 42160
L56380 42210
L56350 42230
L56310 42260
L56190 42260
L56140 42230
L56120 42210
" />
<path d="M56690 41970
L56640 41950
L56620 41920
L56600 41880
L56600 41850
L56620 41800
L56640 41780
L56690 41760
L56790 41760
L56830 41780
L56860 41800
L56880 41850
L56880 41880
L56860 41920
L56830 41950
L56790 41970
L56690 41970
L56640 41990
L56620 42020
L56600 42070
L56600 42160
L56620 42210
L56640 42230
L56690 42260
L56790 42260
L56830 42230
L56860 42210
L56880 42160
L56880 42070
L56860 42020
L56830 41990
L56790 41970
" />
<path d="M57190 41760
L57240 41760
L57290 41780
L57310 41800
L57340 41850
L57360 41950
L57360 42070
L57340 42160
L57310 42210
L57290 42230
L57240 42260
L57190 42260
L57150 42230
L57120 42210
L57100 42160
L57080 42070
L57080 41950
L57100 41850
L57120 41800
L57150 41780
L57190 41760
" />
<path d="M57530 42450
L57560 42420
L57600 42350
L57630 42300
L57650 42230
L57670 42110
L57670 42020
L57650 41900
L57630 41830
L57600 41780
L57560 41710
L57530 41680
" />
</g>
<g style="fill:#008484; fill-opacity:0.0; 
stroke:#008484; stroke-width:0; stroke-opacity:1; 
stroke-linecap:round; stroke-linejoin:round;">
</g>
<g style="fill:#008400; fill-opacity:0.0; 
stroke:#008400; stroke-width:0; stroke-opacity:1; 
stroke-linecap:round; stroke-linejoin:round;">
</g>
<g style="fill:#008400; fill-opacity:1.0; 
stroke:#008400; stroke-width:100; stroke-opacity:1; 
stroke-linecap:round; stroke-linejoin:round;">
<circle cx="48000" cy="41000" r="200" /> 
</g>
<g style="fill:#008400; fill-opacity:1.0; 
stroke:#008400; stroke-width:60; stroke-opacity:1; 
stroke-linecap:round; stroke-linejoin:round;">
</g>
<g style="fill:#008400; fill-opacity:0.0; 
stroke:#008400; stroke-width:60; stroke-opacity:1; 
stroke-linecap:round; stroke-linejoin:round;">
<path d="M48000 41000
L47000 41000
" />
<path d="M43500 41000
L43500 45000
" />
</g>
<g style="fill:#008400; fill-opacity:0.0; 
stroke:#008400; stroke-width:0; stroke-opacity:1; 
stroke-linecap:round; stroke-linejoin:round;">
</g>
<g style="fill:#008400; fill-opacity:1.0; 
stroke:#008400; stroke-width:100; stroke-opacity:1; 
stroke-linecap:round; stroke-linejoin:round;">
<circle cx="43500" cy="45000" r="200" /> 
</g>
<g style="fill:#008400; fill-opacity:1.0; 
stroke:#008400; stroke-width:60; stroke-opacity:1; 
stroke-linecap:round; stroke-linejoin:round;">
</g>
<g style="fill:#008400; fill-opacity:0.0; 
stroke:#008400; stroke-width:60; stroke-opacity:1; 
stroke-linecap:round; stroke-linejoin:round;">
<path d="M43500 41000
L44000 41000
" />
</g> 
</svg>
